<svg width="400" height="400" viewBox="0 0 64 64" fill="none" xmlns="http://www.w3.org/2000/svg">
<g clip-path="url(#clip0_1:305)">
<rect width="64" height="64" rx="32" transform="matrix(-1 0 0 1 64 0)" fill="white" fill-opacity="0.47"/>
<g clip-path="url(#clip1_1:305)">
<circle r="5" transform="matrix(-1 0 0 1 46 37)" fill="#EAC0B3"/>
<path d="M46 41H29V65.8705C29 65.8705 32.6429 68 37.5 68C42.3571 68 46 64.5226 46 64.5226V41Z" fill="#EAC0B3"/>
<path d="M29.1886 53.1122C29.1886 58.4968 30.0598 57.9871 35.7224 57.9871C41.3849 57.9871 43.9984 53.6219 43.9984 48.2373C43.9984 42.8526 44.2133 38 39.6426 38C26.7201 38.4762 29.1886 47.7275 29.1886 53.1122Z" fill="#C99688"/>
<path d="M18.1142 36.0992C18.1142 45.0216 19.5 55.9932 30.5 55.9932C41.5 55.9932 46.5716 45.0216 46.5716 36.0992C49 25.5 48.5 13 32 13C15.5 13 18.1142 27.1767 18.1142 36.0992Z" fill="#F5D0C5"/>
<rect width="3" height="2" rx="1" transform="matrix(-1 0 0 1 28 41)" fill="#EAC0B3"/>
</g>
<g clip-path="url(#clip2_1:305)">
<rect width="40" height="23" rx="9" transform="matrix(-1 0 0 1 57 60)" fill="#FF4DD8"/>
<path d="M47 58H28V61C28 61 33 62 37.5 62C42 62 47 61 47 61V58Z" fill="#FF4DD8"/>
<path d="M47 58H28V60C28 60 31 61.5 37.5 61.5C44 61.5 47 60 47 60V58Z" fill="#D2499B"/>
<path d="M47.5 59C47.5 57.8954 46.6046 57 45.5 57H29.5C28.3954 57 27.5 57.8954 27.5 59C27.5 59 32.5 60 37.5 60C42.5 60 47.5 59 47.5 59Z" fill="#FF4DD8"/>
</g>
<g clip-path="url(#clip3_1:305)">
<path fill-rule="evenodd" clip-rule="evenodd" d="M16 25C16 22.6362 16.4656 20.2956 17.3702 18.1117C18.2748 15.9278 19.6006 13.9435 21.2721 12.2721C22.9435 10.6006 24.9278 9.27475 27.1117 8.37017C29.2956 7.46558 31.6362 7 34 7C36.3638 7 38.7044 7.46558 40.8883 8.37017C43.0722 9.27475 45.0565 10.6006 46.7279 12.2721C48.3994 13.9435 49.7252 15.9278 50.6298 18.1117C51.4705 20.1412 51.932 22.306 51.993 24.4991L52 24.5V25V65H41V34.5975C38.5153 34.1193 34.2207 33.0675 28.7917 30.8407C23.3283 28.5996 19.9188 26.4823 18.1242 25.2039C17.8821 27.7278 17.9659 30.3637 18.0438 32.8148C18.0802 33.96 18.1154 35.0649 18.1154 36.0992C18.1154 36.5069 18.1235 36.9167 18.1396 37.3279C17.9086 37.255 17.6926 37.1751 17.5012 37.0877C16.0012 36.4035 16.0012 35.4912 16.0012 35.4912V25H16ZM49 33C49.1889 33.1416 49.3679 33.2968 49.5355 33.4645C49.9998 33.9288 50.3681 34.48 50.6194 35.0866C50.8707 35.6932 51 36.3434 51 37C51 37.6566 50.8707 38.3068 50.6194 38.9134C50.3681 39.52 49.9998 40.0712 49.5355 40.5355C49.3679 40.7032 49.1889 40.8584 49 41V33Z" fill="#47280B"/>
</g>
<path d="M35.0714 46C35.0714 45.4477 34.6237 45 34.0714 45H24.9286C24.3763 45 23.9286 45.4477 23.9286 46C23.9286 48.7614 26.1671 51 28.9286 51H30.0714C32.8329 51 35.0714 48.7614 35.0714 46Z" fill="#66253C"/>
<path fill-rule="evenodd" clip-rule="evenodd" d="M27.2453 50.7096C27.7713 50.8976 28.338 51 28.9286 51H30.0714C32.7659 51 34.9626 48.8686 35.0675 46.1999C34.3035 45.914 33.1695 45.9469 32.0501 45.9794C31.6944 45.9897 31.3403 46 31 46C28.7908 46 27 47.567 27 49.5C27 49.9252 27.0866 50.3326 27.2453 50.7096Z" fill="#B03E67"/>
<path d="M34 45H24V46C24 46.5523 24.4477 47 25 47H33C33.5523 47 34 46.5523 34 46V45Z" fill="white"/>
<rect width="3" height="4" rx="1.5" transform="matrix(-1 0 0 1 34 35)" fill="#1B0B47"/>
<rect width="3" height="4" rx="1.5" transform="matrix(-1 0 0 1 24 35)" fill="#1B0B47"/>
<rect width="5" height="3" rx="1.5" transform="matrix(-1 0 0 1 40 38)" fill="#FF859B"/>
<rect width="4" height="3" rx="1.5" transform="matrix(-1 0 0 1 21 38)" fill="#FF859B"/>
<circle r="4.26891" transform="matrix(-1 0 0 1 33.7311 36.2689)" stroke="black" stroke-width="2"/>
<circle r="4.26891" transform="matrix(-1 0 0 1 19.7311 36.2689)" stroke="black" stroke-width="2"/>
<line y1="-1" x2="7.00077" y2="-1" transform="matrix(-0.999891 -0.0147929 -0.0147929 0.999891 30 36.1036)" stroke="black" stroke-width="2"/>
<path d="M32 63C49.1208 63 63 49.1208 63 32H65C65 50.2254 50.2254 65 32 65V63ZM1 32C1 49.1208 14.8792 63 32 63V65C13.7746 65 -1 50.2254 -1 32H1ZM32 1C14.8792 1 1 14.8792 1 32H-1C-1 13.7746 13.7746 -1 32 -1V1ZM32 -1C50.2254 -1 65 13.7746 65 32H63C63 14.8792 49.1208 1 32 1V-1Z" fill="black"/>
</g>
<defs>
<clipPath id="clip0_1:305">
<rect width="64" height="64" rx="32" transform="matrix(-1 0 0 1 64 0)" fill="white"/>
</clipPath>
<clipPath id="clip1_1:305">
<rect width="64" height="64" fill="white" transform="matrix(-1 0 0 1 64 0)"/>
</clipPath>
<clipPath id="clip2_1:305">
<rect width="64" height="64" fill="white" transform="matrix(-1 0 0 1 64 0)"/>
</clipPath>
<clipPath id="clip3_1:305">
<rect width="64" height="64" fill="white" transform="matrix(-1 0 0 1 64 0)"/>
</clipPath>
</defs>
</svg>
